<?xml version="1.0" encoding="UTF-8" standalone="no"?>
<!DOCTYPE svg PUBLIC "-//W3C//DTD SVG 1.1//EN"
 "http://www.w3.org/Graphics/SVG/1.1/DTD/svg11.dtd">
<!-- Generated by graphviz version 2.43.0 (0)
 -->
<!-- Title: setup Pages: 1 -->
<svg width="457pt" height="232pt"
 viewBox="0.00 0.00 457.00 232.00" xmlns="http://www.w3.org/2000/svg" xmlns:xlink="http://www.w3.org/1999/xlink">

<svg id="main" version="1.1" xmlns="http://www.w3.org/2000/svg" xmlns:xlink="http://www.w3.org/1999/xlink" xml:space="preserve" onload="init(evt)">
<style type="text/css"><![CDATA[
.node, .edge {opacity: 0.7;}
.node.selected, .edge.selected {opacity: 1;}
.edge:hover path { stroke: red; }
.edge:hover polygon { stroke: red; fill: red; }
]]></style>
<script type="application/ecmascript" xlink:href="svg.min.js"/>
<svg id="graph" class="graph">
<g id="graph0" class="graph" transform="scale(1 1) rotate(0) translate(4 228)">
<title>setup</title>
<!-- Node1 -->
<g id="Node000001" class="node">
<title>Node1</title>
<g id="a_Node000001"><a xlink:title="Arduino entry point — delegates to rx_setup().">
<polygon fill="#999999" stroke="#666666" points="44,-76 0,-76 0,-57 44,-57 44,-76"/>
<text text-anchor="middle" x="22" y="-64" font-family="Helvetica,sans-Serif" font-size="10.00">setup</text>
</a>
</g>
</g>
<!-- Node2 -->
<g id="Node000002" class="node">
<title>Node2</title>
<g id="a_Node000002"><a xlink:href="ReceiverNode_8ino.html#af5d28e81c93d51f8da867ec78430d78e" target="_top" xlink:title="Initialise RX hardware, seed the CSPRNG, and display the idle screen.">
<polygon fill="white" stroke="#666666" points="139,-76 80,-76 80,-57 139,-57 139,-76"/>
<text text-anchor="middle" x="109.5" y="-64" font-family="Helvetica,sans-Serif" font-size="10.00">rx_setup</text>
</a>
</g>
</g>
<!-- Node1&#45;&gt;Node2 -->
<g id="edge1_Node000001_Node000002" class="edge">
<title>Node1&#45;&gt;Node2</title>
<g id="a_edge1_Node000001_Node000002"><a xlink:title=" ">
<path fill="none" stroke="#63b8ff" d="M44.13,-66.5C51.88,-66.5 60.92,-66.5 69.72,-66.5"/>
<polygon fill="#63b8ff" stroke="#63b8ff" points="69.87,-70 79.87,-66.5 69.87,-63 69.87,-70"/>
</a>
</g>
</g>
<!-- Node3 -->
<g id="Node000003" class="node">
<title>Node3</title>
<g id="a_Node000003"><a xlink:href="ReceiverNode_8ino.html#aa3ea3de38898a330f3254415768bd79e" target="_top" xlink:title="Harvest 256 bits of hardware entropy and fill outputSeed (RX variant).">
<polygon fill="white" stroke="#666666" points="294,-150 175,-150 175,-131 294,-131 294,-150"/>
<text text-anchor="middle" x="234.5" y="-138" font-family="Helvetica,sans-Serif" font-size="10.00">generateEntropyPool</text>
</a>
</g>
</g>
<!-- Node2&#45;&gt;Node3 -->
<g id="edge2_Node000002_Node000003" class="edge">
<title>Node2&#45;&gt;Node3</title>
<g id="a_edge2_Node000002_Node000003"><a xlink:title=" ">
<path fill="none" stroke="#63b8ff" d="M126.33,-76.02C147.16,-88.55 183.99,-110.71 208.58,-125.51"/>
<polygon fill="#63b8ff" stroke="#63b8ff" points="206.97,-128.62 217.34,-130.78 210.58,-122.62 206.97,-128.62"/>
</a>
</g>
</g>
<!-- Node8 -->
<g id="Node000008" class="node">
<title>Node8</title>
<g id="a_Node000008"><a xlink:href="TransmitterNode_2csprng_8h.html#ae0da75974cdce1f5752c2bb546305bc6" target="_top" xlink:title="Seed the ChaCha20 CSPRNG with 256 bits of hardware entropy.">
<polygon fill="white" stroke="#666666" points="271,-95 198,-95 198,-76 271,-76 271,-95"/>
<text text-anchor="middle" x="234.5" y="-83" font-family="Helvetica,sans-Serif" font-size="10.00">initCSPRNG</text>
</a>
</g>
</g>
<!-- Node2&#45;&gt;Node8 -->
<g id="edge7_Node000002_Node000008" class="edge">
<title>Node2&#45;&gt;Node8</title>
<g id="a_edge7_Node000002_Node000008"><a xlink:title=" ">
<path fill="none" stroke="#63b8ff" d="M139.03,-70.91C153.49,-73.14 171.39,-75.91 187.72,-78.43"/>
<polygon fill="#63b8ff" stroke="#63b8ff" points="187.22,-81.89 197.63,-79.96 188.29,-74.97 187.22,-81.89"/>
</a>
</g>
</g>
<!-- Node10 -->
<g id="Node000010" class="node">
<title>Node10</title>
<g id="a_Node000010"><a xlink:href="ReceiverNode_8ino.html#a20ac5ec1e34e1017436f429d0d1fc4c6" target="_top" xlink:title="I2C LCD display object (Aip31068, 16×2, address 0x3E).">
<polygon fill="white" stroke="#666666" points="405,-29 374,-29 374,-10 405,-10 405,-29"/>
<text text-anchor="middle" x="389.5" y="-17" font-family="Helvetica,sans-Serif" font-size="10.00">lcd</text>
</a>
</g>
</g>
<!-- Node2&#45;&gt;Node10 -->
<g id="edge9_Node000002_Node000010" class="edge">
<title>Node2&#45;&gt;Node10</title>
<g id="a_edge9_Node000002_Node000010"><a xlink:title=" ">
<path fill="none" stroke="#63b8ff" d="M139.2,-61.65C193.99,-52.38 312.57,-32.34 363.94,-23.65"/>
<polygon fill="#63b8ff" stroke="#63b8ff" points="364.56,-27.1 373.84,-21.98 363.4,-20.19 364.56,-27.1"/>
</a>
</g>
</g>
<!-- Node11 -->
<g id="Node000011" class="node">
<title>Node11</title>
<g id="a_Node000011"><a xlink:href="ReceiverNode_8ino.html#ad480eab0452677c1a97acc1999040141" target="_top" xlink:title="Refresh the RX LCD with the current FSM state and last packet result.">
<polygon fill="white" stroke="#666666" points="284.5,-19 184.5,-19 184.5,0 284.5,0 284.5,-19"/>
<text text-anchor="middle" x="234.5" y="-7" font-family="Helvetica,sans-Serif" font-size="10.00">updateRxDisplay</text>
</a>
</g>
</g>
<!-- Node2&#45;&gt;Node11 -->
<g id="edge10_Node000002_Node000011" class="edge">
<title>Node2&#45;&gt;Node11</title>
<g id="a_edge10_Node000002_Node000011"><a xlink:title=" ">
<path fill="none" stroke="#63b8ff" d="M128.1,-56.99C140.96,-50.17 158.89,-40.91 175,-33.5 182.8,-29.91 191.29,-26.28 199.33,-22.96"/>
<polygon fill="#63b8ff" stroke="#63b8ff" points="200.88,-26.1 208.83,-19.09 198.24,-19.62 200.88,-26.1"/>
</a>
</g>
</g>
<!-- Node4 -->
<g id="Node000004" class="node">
<title>Node4</title>
<g id="a_Node000004"><a xlink:href="ReceiverNode_8ino.html#a4d94480dc1ef08baec83709005cbfb13" target="_top" xlink:title="Single&#45;step cryptographic entropy mixer — rotate&#45;left XOR fold.">
<polygon fill="white" stroke="#666666" points="426,-224 353,-224 353,-205 426,-205 426,-224"/>
<text text-anchor="middle" x="389.5" y="-212" font-family="Helvetica,sans-Serif" font-size="10.00">mixEntropy</text>
</a>
</g>
</g>
<!-- Node3&#45;&gt;Node4 -->
<g id="edge3_Node000003_Node000004" class="edge">
<title>Node3&#45;&gt;Node4</title>
<g id="a_edge3_Node000003_Node000004"><a xlink:title=" ">
<path fill="none" stroke="#63b8ff" d="M249.35,-150.13C267.28,-162.27 299.83,-183.15 330,-196.5 334.16,-198.34 338.56,-200.07 343.01,-201.67"/>
<polygon fill="#63b8ff" stroke="#63b8ff" points="342.15,-205.07 352.74,-204.97 344.39,-198.44 342.15,-205.07"/>
</a>
</g>
</g>
<!-- Node5 -->
<g id="Node000005" class="node">
<title>Node5</title>
<g id="a_Node000005"><a xlink:href="TransmitterNode_8ino.html#a4d94480dc1ef08baec83709005cbfb13" target="_top" xlink:title="One mixing step of the entropy accumulation sponge.">
<polygon fill="white" stroke="#666666" points="426,-187 353,-187 353,-168 426,-168 426,-187"/>
<text text-anchor="middle" x="389.5" y="-175" font-family="Helvetica,sans-Serif" font-size="10.00">mixEntropy</text>
</a>
</g>
</g>
<!-- Node3&#45;&gt;Node5 -->
<g id="edge4_Node000003_Node000005" class="edge">
<title>Node3&#45;&gt;Node5</title>
<g id="a_edge4_Node000003_Node000005"><a xlink:title=" ">
<path fill="none" stroke="#63b8ff" d="M274.9,-150.03C295.69,-155.06 321.31,-161.25 342.95,-166.48"/>
<polygon fill="#63b8ff" stroke="#63b8ff" points="342.35,-169.94 352.89,-168.89 344,-163.14 342.35,-169.94"/>
</a>
</g>
</g>
<!-- Node6 -->
<g id="Node000006" class="node">
<title>Node6</title>
<g id="a_Node000006"><a xlink:href="ReceiverNode_8ino.html#a1933a209dc27cc038a843a10f00b66f7" target="_top" xlink:title="Ring oscillator ISR — increments pulse counter on each RISING edge.">
<polygon fill="white" stroke="#666666" points="437,-150 342,-150 342,-131 437,-131 437,-150"/>
<text text-anchor="middle" x="389.5" y="-138" font-family="Helvetica,sans-Serif" font-size="10.00">onRingOscPulse</text>
</a>
</g>
</g>
<!-- Node3&#45;&gt;Node6 -->
<g id="edge5_Node000003_Node000006" class="edge">
<title>Node3&#45;&gt;Node6</title>
<g id="a_edge5_Node000003_Node000006"><a xlink:title=" ">
<path fill="none" stroke="#63b8ff" d="M294.22,-140.5C306.46,-140.5 319.35,-140.5 331.53,-140.5"/>
<polygon fill="#63b8ff" stroke="#63b8ff" points="331.57,-144 341.57,-140.5 331.57,-137 331.57,-144"/>
</a>
</g>
</g>
<!-- Node7 -->
<g id="Node000007" class="node">
<title>Node7</title>
<g id="a_Node000007"><a xlink:href="TransmitterNode_8ino.html#a1933a209dc27cc038a843a10f00b66f7" target="_top" xlink:title="INT0 interrupt service routine — counts ring oscillator rising edges.">
<polygon fill="white" stroke="#666666" points="437,-113 342,-113 342,-94 437,-94 437,-113"/>
<text text-anchor="middle" x="389.5" y="-101" font-family="Helvetica,sans-Serif" font-size="10.00">onRingOscPulse</text>
</a>
</g>
</g>
<!-- Node3&#45;&gt;Node7 -->
<g id="edge6_Node000003_Node000007" class="edge">
<title>Node3&#45;&gt;Node7</title>
<g id="a_edge6_Node000003_Node000007"><a xlink:title=" ">
<path fill="none" stroke="#63b8ff" d="M274.9,-130.97C294.46,-126.24 318.28,-120.48 339.05,-115.46"/>
<polygon fill="#63b8ff" stroke="#63b8ff" points="340.07,-118.81 348.97,-113.06 338.42,-112.01 340.07,-118.81"/>
</a>
</g>
</g>
<!-- Node9 -->
<g id="Node000009" class="node">
<title>Node9</title>
<g id="a_Node000009"><a xlink:href="ReceiverNode_2csprng_8h.html#ade2c2e7611dd842d0956c92589d6cad8" target="_top" xlink:title="Produce the next 64&#45;byte ChaCha20 keystream block into s_keystreamBuf.">
<polygon fill="white" stroke="#666666" points="449,-76 330,-76 330,-57 449,-57 449,-76"/>
<text text-anchor="middle" x="389.5" y="-64" font-family="Helvetica,sans-Serif" font-size="10.00">s_fillKeystreamBlock</text>
</a>
</g>
</g>
<!-- Node8&#45;&gt;Node9 -->
<g id="edge8_Node000008_Node000009" class="edge">
<title>Node8&#45;&gt;Node9</title>
<g id="a_edge8_Node000008_Node000009"><a xlink:title=" ">
<path fill="none" stroke="#63b8ff" d="M271.37,-81.05C285.78,-79.26 302.9,-77.13 319.54,-75.06"/>
<polygon fill="#63b8ff" stroke="#63b8ff" points="320.31,-78.49 329.81,-73.79 319.45,-71.55 320.31,-78.49"/>
</a>
</g>
</g>
<!-- Node11&#45;&gt;Node10 -->
<g id="edge11_Node000011_Node000010" class="edge">
<title>Node11&#45;&gt;Node10</title>
<g id="a_edge11_Node000011_Node000010"><a xlink:title=" ">
<path fill="none" stroke="#63b8ff" d="M284.75,-12.72C311.09,-14.44 342.38,-16.49 363.66,-17.88"/>
<polygon fill="#63b8ff" stroke="#63b8ff" points="363.59,-21.38 373.79,-18.54 364.04,-14.39 363.59,-21.38"/>
</a>
</g>
</g>
</g>
</svg>
</svg>

<style type='text/css'>
<![CDATA[
[data-mouse-over-selected='false'] { opacity: 0.7; }
[data-mouse-over-selected='true']  { opacity: 1.0; }
]]>
</style>
<script type="application/ecmascript"><![CDATA[
document.addEventListener('DOMContentLoaded', (event) => {
  highlightEdges();
  highlightAdjacentNodes();
});
]]></script>
</svg>
