<?xml version="1.0" encoding="UTF-8" standalone="no"?>
<!DOCTYPE svg PUBLIC "-//W3C//DTD SVG 1.1//EN"
 "http://www.w3.org/Graphics/SVG/1.1/DTD/svg11.dtd">
<!-- Generated by graphviz version 2.43.0 (0)
 -->
<!-- Title: generateEntropyPool Pages: 1 -->
<svg width="258pt" height="64pt"
 viewBox="0.00 0.00 258.00 64.00" xmlns="http://www.w3.org/2000/svg" xmlns:xlink="http://www.w3.org/1999/xlink">
<g id="graph0" class="graph" transform="scale(1 1) rotate(0) translate(4 60)">
<title>generateEntropyPool</title>
<!-- Node1 -->
<g id="Node000001" class="node">
<title>Node1</title>
<g id="a_Node000001"><a xlink:title="Harvest 256 bits of hardware entropy and write them to outputSeed (RX variant).">
<polygon fill="#999999" stroke="#666666" points="119,-37 0,-37 0,-18 119,-18 119,-37"/>
<text text-anchor="middle" x="59.5" y="-25" font-family="Helvetica,sans-Serif" font-size="10.00">generateEntropyPool</text>
</a>
</g>
</g>
<!-- Node2 -->
<g id="Node000002" class="node">
<title>Node2</title>
<g id="a_Node000002"><a xlink:href="ReceiverNode_8ino.html#a4d94480dc1ef08baec83709005cbfb13" target="_top" xlink:title="Single&#45;step cryptographic entropy mixer — rotate&#45;left XOR fold.">
<polygon fill="white" stroke="#666666" points="239,-56 166,-56 166,-37 239,-37 239,-56"/>
<text text-anchor="middle" x="202.5" y="-44" font-family="Helvetica,sans-Serif" font-size="10.00">mixEntropy</text>
</a>
</g>
</g>
<!-- Node1&#45;&gt;Node2 -->
<g id="edge1_Node000001_Node000002" class="edge">
<title>Node1&#45;&gt;Node2</title>
<g id="a_edge1_Node000001_Node000002"><a xlink:title=" ">
<path fill="none" stroke="#63b8ff" d="M119.07,-35.39C131.36,-37.05 144.15,-38.77 155.88,-40.35"/>
<polygon fill="#63b8ff" stroke="#63b8ff" points="155.5,-43.83 165.88,-41.7 156.44,-36.9 155.5,-43.83"/>
</a>
</g>
</g>
<!-- Node3 -->
<g id="Node000003" class="node">
<title>Node3</title>
<g id="a_Node000003"><a xlink:href="ReceiverNode_8ino.html#a1933a209dc27cc038a843a10f00b66f7" target="_top" xlink:title="Ring oscillator ISR — increments pulse counter on each RISING edge.">
<polygon fill="white" stroke="#666666" points="250,-19 155,-19 155,0 250,0 250,-19"/>
<text text-anchor="middle" x="202.5" y="-7" font-family="Helvetica,sans-Serif" font-size="10.00">onRingOscPulse</text>
</a>
</g>
</g>
<!-- Node1&#45;&gt;Node3 -->
<g id="edge2_Node000001_Node000003" class="edge">
<title>Node1&#45;&gt;Node3</title>
<g id="a_edge2_Node000001_Node000003"><a xlink:title=" ">
<path fill="none" stroke="#63b8ff" d="M119.07,-20.02C127.57,-18.94 136.31,-17.82 144.77,-16.74"/>
<polygon fill="#63b8ff" stroke="#63b8ff" points="145.44,-20.18 154.92,-15.45 144.56,-13.24 145.44,-20.18"/>
</a>
</g>
</g>
</g>
</svg>
