<?xml version="1.0" encoding="UTF-8" standalone="no"?>
<!DOCTYPE svg PUBLIC "-//W3C//DTD SVG 1.1//EN"
 "http://www.w3.org/Graphics/SVG/1.1/DTD/svg11.dtd">
<!-- Generated by graphviz version 2.43.0 (0)
 -->
<!-- Title: updateRxDisplay Pages: 1 -->
<svg width="583pt" height="141pt"
 viewBox="0.00 0.00 583.00 141.00" xmlns="http://www.w3.org/2000/svg" xmlns:xlink="http://www.w3.org/1999/xlink">
<g id="graph0" class="graph" transform="scale(1 1) rotate(0) translate(4 137)">
<title>updateRxDisplay</title>
<!-- Node1 -->
<g id="Node000001" class="node">
<title>Node1</title>
<g id="a_Node000001"><a xlink:title="Refresh the RX LCD with the current FSM state and last packet result.">
<polygon fill="#999999" stroke="#666666" points="575,-76 475,-76 475,-57 575,-57 575,-76"/>
<text text-anchor="middle" x="525" y="-64" font-family="Helvetica,sans-Serif" font-size="10.00">updateRxDisplay</text>
</a>
</g>
</g>
<!-- Node2 -->
<g id="Node000002" class="node">
<title>Node2</title>
<g id="a_Node000002"><a xlink:href="ReceiverNode_8ino.html#a0d62676882b82880ba49b1cc3f82eecd" target="_top" xlink:title="Authenticate and decrypt a DataPacket (FLAG_DAT); play the note on MAC success.">
<polygon fill="white" stroke="#666666" points="439,-133 321,-133 321,-114 439,-114 439,-133"/>
<text text-anchor="middle" x="380" y="-121" font-family="Helvetica,sans-Serif" font-size="10.00">authenticateAndPlay</text>
</a>
</g>
</g>
<!-- Node1&#45;&gt;Node2 -->
<g id="edge1_Node000001_Node000002" class="edge">
<title>Node1&#45;&gt;Node2</title>
<g id="a_edge1_Node000001_Node000002"><a xlink:title=" ">
<path fill="none" stroke="#63b8ff" d="M490.53,-79.84C464.3,-90.3 428.45,-104.59 405.01,-113.93"/>
<polygon fill="#63b8ff" stroke="#63b8ff" points="492.07,-82.99 500.07,-76.04 489.48,-76.49 492.07,-82.99"/>
</a>
</g>
</g>
<!-- Node3 -->
<g id="Node000003" class="node">
<title>Node3</title>
<g id="a_Node000003"><a xlink:href="ReceiverNode_8ino.html#a3ee8b06d42b5b683ab0c0823e598eb48" target="_top" xlink:title="Consume one incoming UART byte and advance the frame&#45;assembly FSM.">
<polygon fill="white" stroke="#666666" points="285,-95 163,-95 163,-76 285,-76 285,-95"/>
<text text-anchor="middle" x="224" y="-83" font-family="Helvetica,sans-Serif" font-size="10.00">processReceivedByte</text>
</a>
</g>
</g>
<!-- Node1&#45;&gt;Node3 -->
<g id="edge5_Node000001_Node000003" class="edge">
<title>Node1&#45;&gt;Node3</title>
<g id="a_edge5_Node000001_Node000003"><a xlink:title=" ">
<path fill="none" stroke="#63b8ff" d="M464.88,-70.26C412.87,-73.56 337.49,-78.35 285.16,-81.68"/>
<polygon fill="#63b8ff" stroke="#63b8ff" points="465.2,-73.74 474.96,-69.62 464.76,-66.76 465.2,-73.74"/>
</a>
</g>
</g>
<!-- Node4 -->
<g id="Node000004" class="node">
<title>Node4</title>
<g id="a_Node000004"><a xlink:href="ReceiverNode_8ino.html#a3220eab9de89738ed514928a1a59dc80" target="_top" xlink:title="Execute one non&#45;blocking C2P&#45;ARQ FSM tick for the Receiver node.">
<polygon fill="white" stroke="#666666" points="127,-76 74,-76 74,-57 127,-57 127,-76"/>
<text text-anchor="middle" x="100.5" y="-64" font-family="Helvetica,sans-Serif" font-size="10.00">rx_loop</text>
</a>
</g>
</g>
<!-- Node1&#45;&gt;Node4 -->
<g id="edge6_Node000001_Node000004" class="edge">
<title>Node1&#45;&gt;Node4</title>
<g id="a_edge6_Node000001_Node000004"><a xlink:title=" ">
<path fill="none" stroke="#63b8ff" d="M464.56,-66.5C371.13,-66.5 193.71,-66.5 127.38,-66.5"/>
<polygon fill="#63b8ff" stroke="#63b8ff" points="464.71,-70 474.71,-66.5 464.71,-63 464.71,-70"/>
</a>
</g>
</g>
<!-- Node6 -->
<g id="Node000006" class="node">
<title>Node6</title>
<g id="a_Node000006"><a xlink:href="ReceiverNode_8ino.html#af5d28e81c93d51f8da867ec78430d78e" target="_top" xlink:title="Initialise RX hardware and seed the CSPRNG. Called once from setup().">
<polygon fill="white" stroke="#666666" points="409.5,-19 350.5,-19 350.5,0 409.5,0 409.5,-19"/>
<text text-anchor="middle" x="380" y="-7" font-family="Helvetica,sans-Serif" font-size="10.00">rx_setup</text>
</a>
</g>
</g>
<!-- Node1&#45;&gt;Node6 -->
<g id="edge7_Node000001_Node000006" class="edge">
<title>Node1&#45;&gt;Node6</title>
<g id="a_edge7_Node000001_Node000006"><a xlink:title=" ">
<path fill="none" stroke="#63b8ff" d="M490.53,-53.16C464.3,-42.7 428.45,-28.41 405.01,-19.07"/>
<polygon fill="#63b8ff" stroke="#63b8ff" points="489.48,-56.51 500.07,-56.96 492.07,-50.01 489.48,-56.51"/>
</a>
</g>
</g>
<!-- Node2&#45;&gt;Node3 -->
<g id="edge2_Node000002_Node000003" class="edge">
<title>Node2&#45;&gt;Node3</title>
<g id="a_edge2_Node000002_Node000003"><a xlink:title=" ">
<path fill="none" stroke="#63b8ff" d="M330.21,-111.46C308.69,-106.15 283.77,-100 263.58,-95.02"/>
<polygon fill="#63b8ff" stroke="#63b8ff" points="329.59,-114.91 340.14,-113.91 331.27,-108.12 329.59,-114.91"/>
</a>
</g>
</g>
<!-- Node3&#45;&gt;Node4 -->
<g id="edge3_Node000003_Node000004" class="edge">
<title>Node3&#45;&gt;Node4</title>
<g id="a_edge3_Node000003_Node000004"><a xlink:title=" ">
<path fill="none" stroke="#63b8ff" d="M152.89,-74.54C143.68,-73.1 134.77,-71.7 127.02,-70.49"/>
<polygon fill="#63b8ff" stroke="#63b8ff" points="152.54,-78.02 162.96,-76.11 153.62,-71.11 152.54,-78.02"/>
</a>
</g>
</g>
<!-- Node5 -->
<g id="Node000005" class="node">
<title>Node5</title>
<g id="a_Node000005"><a xlink:href="ReceiverNode_8ino.html#afe461d27b9c48d5921c00d521181f12f" target="_top" xlink:title="Arduino main loop — delegates to rx_loop().">
<polygon fill="white" stroke="#666666" points="38,-76 0,-76 0,-57 38,-57 38,-76"/>
<text text-anchor="middle" x="19" y="-64" font-family="Helvetica,sans-Serif" font-size="10.00">loop</text>
</a>
</g>
</g>
<!-- Node4&#45;&gt;Node5 -->
<g id="edge4_Node000004_Node000005" class="edge">
<title>Node4&#45;&gt;Node5</title>
<g id="a_edge4_Node000004_Node000005"><a xlink:title=" ">
<path fill="none" stroke="#63b8ff" d="M63.77,-66.5C54.94,-66.5 45.84,-66.5 38.24,-66.5"/>
<polygon fill="#63b8ff" stroke="#63b8ff" points="63.91,-70 73.91,-66.5 63.91,-63 63.91,-70"/>
</a>
</g>
</g>
<!-- Node7 -->
<g id="Node000007" class="node">
<title>Node7</title>
<g id="a_Node000007"><a xlink:href="ReceiverNode_8ino.html#a4fc01d736fe50cf5b977f755b675f11d" target="_top" xlink:title="Arduino entry point — delegates to rx_setup().">
<polygon fill="white" stroke="#666666" points="246,-19 202,-19 202,0 246,0 246,-19"/>
<text text-anchor="middle" x="224" y="-7" font-family="Helvetica,sans-Serif" font-size="10.00">setup</text>
</a>
</g>
</g>
<!-- Node6&#45;&gt;Node7 -->
<g id="edge8_Node000006_Node000007" class="edge">
<title>Node6&#45;&gt;Node7</title>
<g id="a_edge8_Node000006_Node000007"><a xlink:title=" ">
<path fill="none" stroke="#63b8ff" d="M340.3,-9.5C310.42,-9.5 270.22,-9.5 246.04,-9.5"/>
<polygon fill="#63b8ff" stroke="#63b8ff" points="340.39,-13 350.39,-9.5 340.39,-6 340.39,-13"/>
</a>
</g>
</g>
</g>
</svg>
