<?xml version="1.0" encoding="UTF-8" standalone="no"?>
<!DOCTYPE svg PUBLIC "-//W3C//DTD SVG 1.1//EN"
 "http://www.w3.org/Graphics/SVG/1.1/DTD/svg11.dtd">
<!-- Generated by graphviz version 2.43.0 (0)
 -->
<!-- Title: TransmitterNode/TransmitterNode.ino Pages: 1 -->
<svg width="497pt" height="214pt"
 viewBox="0.00 0.00 497.00 214.00" xmlns="http://www.w3.org/2000/svg" xmlns:xlink="http://www.w3.org/1999/xlink">

<svg id="main" version="1.1" xmlns="http://www.w3.org/2000/svg" xmlns:xlink="http://www.w3.org/1999/xlink" xml:space="preserve" onload="init(evt)">
<style type="text/css"><![CDATA[
.node, .edge {opacity: 0.7;}
.node.selected, .edge.selected {opacity: 1;}
.edge:hover path { stroke: red; }
.edge:hover polygon { stroke: red; fill: red; }
]]></style>
<script type="application/ecmascript" xlink:href="svg.min.js"/>
<svg id="graph" class="graph">
<g id="graph0" class="graph" transform="scale(1 1) rotate(0) translate(4 210)">
<title>TransmitterNode/TransmitterNode.ino</title>
<!-- Node1 -->
<g id="Node000001" class="node">
<title>Node1</title>
<g id="a_Node000001"><a xlink:title="SH2SC&#45;EDT — Transmitter Node A (&quot;The Conductor&quot;) firmware.">
<polygon fill="#999999" stroke="#666666" points="387.5,-206 231.5,-206 231.5,-176 387.5,-176 387.5,-206"/>
<text text-anchor="start" x="239.5" y="-194" font-family="Helvetica,sans-Serif" font-size="10.00">TransmitterNode/Transmitter</text>
<text text-anchor="middle" x="309.5" y="-183" font-family="Helvetica,sans-Serif" font-size="10.00">Node.ino</text>
</a>
</g>
</g>
<!-- Node2 -->
<g id="Node000002" class="node">
<title>Node2</title>
<g id="a_Node000002"><a xlink:href="transmitter_8h.html" target="_top" xlink:title="SH2SC&#45;EDT — Transmitter Node A (&quot;The Conductor&quot;) public interface.">
<polygon fill="white" stroke="#666666" points="241.5,-134.5 161.5,-134.5 161.5,-115.5 241.5,-115.5 241.5,-134.5"/>
<text text-anchor="middle" x="201.5" y="-122.5" font-family="Helvetica,sans-Serif" font-size="10.00">transmitter.h</text>
</a>
</g>
</g>
<!-- Node1&#45;&gt;Node2 -->
<g id="edge1_Node000001_Node000002" class="edge">
<title>Node1&#45;&gt;Node2</title>
<g id="a_edge1_Node000001_Node000002"><a xlink:title=" ">
<path fill="none" stroke="#63b8ff" d="M285.8,-175.95C267.61,-165.18 242.64,-150.38 224.6,-139.69"/>
<polygon fill="#63b8ff" stroke="#63b8ff" points="226.26,-136.6 215.87,-134.52 222.69,-142.63 226.26,-136.6"/>
</a>
</g>
</g>
<!-- Node9 -->
<g id="Node000009" class="node">
<title>Node9</title>
<g id="a_Node000009"><a xlink:href="melody_8h.html" target="_top" xlink:title="PROGMEM melody data for SH2SC&#45;EDT — Transmitter Node A.">
<polygon fill="white" stroke="#666666" points="340,-134.5 279,-134.5 279,-115.5 340,-115.5 340,-134.5"/>
<text text-anchor="middle" x="309.5" y="-122.5" font-family="Helvetica,sans-Serif" font-size="10.00">melody.h</text>
</a>
</g>
</g>
<!-- Node1&#45;&gt;Node9 -->
<g id="edge9_Node000001_Node000009" class="edge">
<title>Node1&#45;&gt;Node9</title>
<g id="a_edge9_Node000001_Node000009"><a xlink:title=" ">
<path fill="none" stroke="#63b8ff" d="M309.5,-175.8C309.5,-166.7 309.5,-154.79 309.5,-144.9"/>
<polygon fill="#63b8ff" stroke="#63b8ff" points="313,-144.84 309.5,-134.84 306,-144.84 313,-144.84"/>
</a>
</g>
</g>
<!-- Node11 -->
<g id="Node000011" class="node">
<title>Node11</title>
<g id="a_Node000011"><a xlink:title=" ">
<polygon fill="#e0e0e0" stroke="#999999" points="489,-140 358,-140 358,-110 489,-110 489,-140"/>
<text text-anchor="start" x="366" y="-128" font-family="Helvetica,sans-Serif" font-size="10.00">LiquidCrystal_AIP31068</text>
<text text-anchor="middle" x="423.5" y="-117" font-family="Helvetica,sans-Serif" font-size="10.00">_I2C.h</text>
</a>
</g>
</g>
<!-- Node1&#45;&gt;Node11 -->
<g id="edge12_Node000001_Node000011" class="edge">
<title>Node1&#45;&gt;Node11</title>
<g id="a_edge12_Node000001_Node000011"><a xlink:title=" ">
<path fill="none" stroke="#63b8ff" d="M334.52,-175.95C350.7,-166.87 371.98,-154.93 389.66,-145"/>
<polygon fill="#63b8ff" stroke="#63b8ff" points="391.53,-147.96 398.54,-140.01 388.11,-141.86 391.53,-147.96"/>
</a>
</g>
</g>
<!-- Node3 -->
<g id="Node000003" class="node">
<title>Node3</title>
<g id="a_Node000003"><a xlink:title=" ">
<polygon fill="#e0e0e0" stroke="#999999" points="303,-19 240,-19 240,0 303,0 303,-19"/>
<text text-anchor="middle" x="271.5" y="-7" font-family="Helvetica,sans-Serif" font-size="10.00">Arduino.h</text>
</a>
</g>
</g>
<!-- Node2&#45;&gt;Node3 -->
<g id="edge2_Node000002_Node000003" class="edge">
<title>Node2&#45;&gt;Node3</title>
<g id="a_edge2_Node000002_Node000003"><a xlink:title=" ">
<path fill="none" stroke="#63b8ff" d="M213.31,-115.35C224.89,-106.27 242.25,-90.99 252.5,-74 260.86,-60.15 265.77,-42.35 268.5,-29.13"/>
<polygon fill="#63b8ff" stroke="#63b8ff" points="271.94,-29.74 270.3,-19.28 265.06,-28.48 271.94,-29.74"/>
</a>
</g>
</g>
<!-- Node4 -->
<g id="Node000004" class="node">
<title>Node4</title>
<g id="a_Node000004"><a xlink:href="TransmitterNode_2protocol_8h.html" target="_top" xlink:title="Shared C2P&#45;ARQ protocol definitions for SH2SC&#45;EDT (Transmitter Node A).">
<polygon fill="white" stroke="#666666" points="65,-74 0,-74 0,-55 65,-55 65,-74"/>
<text text-anchor="middle" x="32.5" y="-62" font-family="Helvetica,sans-Serif" font-size="10.00">protocol.h</text>
</a>
</g>
</g>
<!-- Node2&#45;&gt;Node4 -->
<g id="edge3_Node000002_Node000004" class="edge">
<title>Node2&#45;&gt;Node4</title>
<g id="a_edge3_Node000002_Node000004"><a xlink:title=" ">
<path fill="none" stroke="#63b8ff" d="M176.93,-115.49C147.89,-105.44 99.4,-88.66 66.7,-77.34"/>
<polygon fill="#63b8ff" stroke="#63b8ff" points="67.7,-73.98 57.1,-74.02 65.41,-80.6 67.7,-73.98"/>
</a>
</g>
</g>
<!-- Node6 -->
<g id="Node000006" class="node">
<title>Node6</title>
<g id="a_Node000006"><a xlink:href="TransmitterNode_2csprng_8h.html" target="_top" xlink:title="ChaCha20&#45;based CSPRNG for SH2SC&#45;EDT — Transmitter Node A (ATmega328P).">
<polygon fill="white" stroke="#666666" points="141.5,-74 83.5,-74 83.5,-55 141.5,-55 141.5,-74"/>
<text text-anchor="middle" x="112.5" y="-62" font-family="Helvetica,sans-Serif" font-size="10.00">csprng.h</text>
</a>
</g>
</g>
<!-- Node2&#45;&gt;Node6 -->
<g id="edge5_Node000002_Node000006" class="edge">
<title>Node2&#45;&gt;Node6</title>
<g id="a_edge5_Node000002_Node000006"><a xlink:title=" ">
<path fill="none" stroke="#63b8ff" d="M188.37,-115.37C174.17,-106.04 151.3,-91.01 134.38,-79.88"/>
<polygon fill="#63b8ff" stroke="#63b8ff" points="135.97,-76.74 125.69,-74.17 132.12,-82.58 135.97,-76.74"/>
</a>
</g>
</g>
<!-- Node8 -->
<g id="Node000008" class="node">
<title>Node8</title>
<g id="a_Node000008"><a xlink:title=" ">
<polygon fill="#e0e0e0" stroke="#999999" points="243,-74 160,-74 160,-55 243,-55 243,-74"/>
<text text-anchor="middle" x="201.5" y="-62" font-family="Helvetica,sans-Serif" font-size="10.00">ChaChaPoly.h</text>
</a>
</g>
</g>
<!-- Node2&#45;&gt;Node8 -->
<g id="edge8_Node000002_Node000008" class="edge">
<title>Node2&#45;&gt;Node8</title>
<g id="a_edge8_Node000002_Node000008"><a xlink:title=" ">
<path fill="none" stroke="#63b8ff" d="M201.5,-115.37C201.5,-107.25 201.5,-94.81 201.5,-84.39"/>
<polygon fill="#63b8ff" stroke="#63b8ff" points="205,-84.17 201.5,-74.17 198,-84.17 205,-84.17"/>
</a>
</g>
</g>
<!-- Node5 -->
<g id="Node000005" class="node">
<title>Node5</title>
<g id="a_Node000005"><a xlink:title=" ">
<polygon fill="#e0e0e0" stroke="#999999" points="59,-19 6,-19 6,0 59,0 59,-19"/>
<text text-anchor="middle" x="32.5" y="-7" font-family="Helvetica,sans-Serif" font-size="10.00">stdint.h</text>
</a>
</g>
</g>
<!-- Node4&#45;&gt;Node5 -->
<g id="edge4_Node000004_Node000005" class="edge">
<title>Node4&#45;&gt;Node5</title>
<g id="a_edge4_Node000004_Node000005"><a xlink:title=" ">
<path fill="none" stroke="#63b8ff" d="M32.5,-54.75C32.5,-47.8 32.5,-37.85 32.5,-29.13"/>
<polygon fill="#63b8ff" stroke="#63b8ff" points="36,-29.09 32.5,-19.09 29,-29.09 36,-29.09"/>
</a>
</g>
</g>
<!-- Node6&#45;&gt;Node3 -->
<g id="edge6_Node000006_Node000003" class="edge">
<title>Node6&#45;&gt;Node3</title>
<g id="a_edge6_Node000006_Node000003"><a xlink:title=" ">
<path fill="none" stroke="#63b8ff" d="M138.05,-54.98C164.62,-46.13 206.44,-32.19 236.17,-22.28"/>
<polygon fill="#63b8ff" stroke="#63b8ff" points="237.37,-25.56 245.75,-19.08 235.16,-18.92 237.37,-25.56"/>
</a>
</g>
</g>
<!-- Node7 -->
<g id="Node000007" class="node">
<title>Node7</title>
<g id="a_Node000007"><a xlink:title=" ">
<polygon fill="#e0e0e0" stroke="#999999" points="144,-19 81,-19 81,0 144,0 144,-19"/>
<text text-anchor="middle" x="112.5" y="-7" font-family="Helvetica,sans-Serif" font-size="10.00">ChaCha.h</text>
</a>
</g>
</g>
<!-- Node6&#45;&gt;Node7 -->
<g id="edge7_Node000006_Node000007" class="edge">
<title>Node6&#45;&gt;Node7</title>
<g id="a_edge7_Node000006_Node000007"><a xlink:title=" ">
<path fill="none" stroke="#63b8ff" d="M112.5,-54.75C112.5,-47.8 112.5,-37.85 112.5,-29.13"/>
<polygon fill="#63b8ff" stroke="#63b8ff" points="116,-29.09 112.5,-19.09 109,-29.09 116,-29.09"/>
</a>
</g>
</g>
<!-- Node9&#45;&gt;Node3 -->
<g id="edge10_Node000009_Node000003" class="edge">
<title>Node9&#45;&gt;Node3</title>
<g id="a_edge10_Node000009_Node000003"><a xlink:title=" ">
<path fill="none" stroke="#63b8ff" d="M306.64,-115.47C300.51,-97.15 285.96,-53.68 277.63,-28.81"/>
<polygon fill="#63b8ff" stroke="#63b8ff" points="280.88,-27.5 274.39,-19.13 274.25,-29.72 280.88,-27.5"/>
</a>
</g>
</g>
<!-- Node10 -->
<g id="Node000010" class="node">
<title>Node10</title>
<g id="a_Node000010"><a xlink:title=" ">
<polygon fill="#e0e0e0" stroke="#999999" points="433,-74 338,-74 338,-55 433,-55 433,-74"/>
<text text-anchor="middle" x="385.5" y="-62" font-family="Helvetica,sans-Serif" font-size="10.00">avr/pgmspace.h</text>
</a>
</g>
</g>
<!-- Node9&#45;&gt;Node10 -->
<g id="edge11_Node000009_Node000010" class="edge">
<title>Node9&#45;&gt;Node10</title>
<g id="a_edge11_Node000009_Node000010"><a xlink:title=" ">
<path fill="none" stroke="#63b8ff" d="M320.71,-115.37C332.61,-106.21 351.64,-91.56 366.01,-80.51"/>
<polygon fill="#63b8ff" stroke="#63b8ff" points="368.45,-83.04 374.24,-74.17 364.18,-77.49 368.45,-83.04"/>
</a>
</g>
</g>
</g>
</svg>
</svg>

<style type='text/css'>
<![CDATA[
[data-mouse-over-selected='false'] { opacity: 0.7; }
[data-mouse-over-selected='true']  { opacity: 1.0; }
]]>
</style>
<script type="application/ecmascript"><![CDATA[
document.addEventListener('DOMContentLoaded', (event) => {
  highlightEdges();
  highlightAdjacentNodes();
});
]]></script>
</svg>
