<?xml version="1.0" encoding="UTF-8" standalone="no"?>
<!DOCTYPE svg PUBLIC "-//W3C//DTD SVG 1.1//EN"
 "http://www.w3.org/Graphics/SVG/1.1/DTD/svg11.dtd">
<!-- Generated by graphviz version 2.43.0 (0)
 -->
<!-- Title: setup Pages: 1 -->
<svg width="457pt" height="140pt"
 viewBox="0.00 0.00 457.00 140.00" xmlns="http://www.w3.org/2000/svg" xmlns:xlink="http://www.w3.org/1999/xlink">
<g id="graph0" class="graph" transform="scale(1 1) rotate(0) translate(4 136)">
<title>setup</title>
<!-- Node1 -->
<g id="Node000001" class="node">
<title>Node1</title>
<g id="a_Node000001"><a xlink:title="Arduino sketch entry point — delegates to tx_setup().">
<polygon fill="#999999" stroke="#666666" points="44,-76 0,-76 0,-57 44,-57 44,-76"/>
<text text-anchor="middle" x="22" y="-64" font-family="Helvetica,sans-Serif" font-size="10.00">setup</text>
</a>
</g>
</g>
<!-- Node2 -->
<g id="Node000002" class="node">
<title>Node2</title>
<g id="a_Node000002"><a xlink:href="TransmitterNode_8ino.html#acac5a7229f0ffac831a01151ec73f062" target="_top" xlink:title="Initialise TX hardware and seed the CSPRNG. Called once from setup().">
<polygon fill="white" stroke="#666666" points="139,-76 80,-76 80,-57 139,-57 139,-76"/>
<text text-anchor="middle" x="109.5" y="-64" font-family="Helvetica,sans-Serif" font-size="10.00">tx_setup</text>
</a>
</g>
</g>
<!-- Node1&#45;&gt;Node2 -->
<g id="edge1_Node000001_Node000002" class="edge">
<title>Node1&#45;&gt;Node2</title>
<g id="a_edge1_Node000001_Node000002"><a xlink:title=" ">
<path fill="none" stroke="#63b8ff" d="M44.13,-66.5C51.88,-66.5 60.92,-66.5 69.72,-66.5"/>
<polygon fill="#63b8ff" stroke="#63b8ff" points="69.87,-70 79.87,-66.5 69.87,-63 69.87,-70"/>
</a>
</g>
</g>
<!-- Node3 -->
<g id="Node000003" class="node">
<title>Node3</title>
<g id="a_Node000003"><a xlink:href="TransmitterNode_8ino.html#aa3ea3de38898a330f3254415768bd79e" target="_top" xlink:title="Harvest 256 bits of hardware entropy and write them to outputSeed (TX variant).">
<polygon fill="white" stroke="#666666" points="294,-132 175,-132 175,-113 294,-113 294,-132"/>
<text text-anchor="middle" x="234.5" y="-120" font-family="Helvetica,sans-Serif" font-size="10.00">generateEntropyPool</text>
</a>
</g>
</g>
<!-- Node2&#45;&gt;Node3 -->
<g id="edge2_Node000002_Node000003" class="edge">
<title>Node2&#45;&gt;Node3</title>
<g id="a_edge2_Node000002_Node000003"><a xlink:title=" ">
<path fill="none" stroke="#63b8ff" d="M124.84,-76.27C137.58,-84.63 156.93,-96.53 175,-104.5 179.16,-106.33 183.56,-108.06 188.01,-109.66"/>
<polygon fill="#63b8ff" stroke="#63b8ff" points="187.15,-113.06 197.75,-112.95 189.4,-106.43 187.15,-113.06"/>
</a>
</g>
</g>
<!-- Node4 -->
<g id="Node000004" class="node">
<title>Node4</title>
<g id="a_Node000004"><a xlink:href="TransmitterNode_2csprng_8h.html#ae0da75974cdce1f5752c2bb546305bc6" target="_top" xlink:title="Seed the ChaCha20 CSPRNG with 256 bits of hardware entropy.">
<polygon fill="white" stroke="#666666" points="271,-95 198,-95 198,-76 271,-76 271,-95"/>
<text text-anchor="middle" x="234.5" y="-83" font-family="Helvetica,sans-Serif" font-size="10.00">initCSPRNG</text>
</a>
</g>
</g>
<!-- Node2&#45;&gt;Node4 -->
<g id="edge3_Node000002_Node000004" class="edge">
<title>Node2&#45;&gt;Node4</title>
<g id="a_edge3_Node000002_Node000004"><a xlink:title=" ">
<path fill="none" stroke="#63b8ff" d="M139.03,-70.91C153.49,-73.14 171.39,-75.91 187.72,-78.43"/>
<polygon fill="#63b8ff" stroke="#63b8ff" points="187.22,-81.89 197.63,-79.96 188.29,-74.97 187.22,-81.89"/>
</a>
</g>
</g>
<!-- Node6 -->
<g id="Node000006" class="node">
<title>Node6</title>
<g id="a_Node000006"><a xlink:href="TransmitterNode_8ino.html#ac1523167aa5c6b946749ddbefbe0cb32" target="_top" xlink:title="I2C LCD — 16 columns x 2 rows, Aip31068&#45;compatible controller.">
<polygon fill="white" stroke="#666666" points="405,-38 374,-38 374,-19 405,-19 405,-38"/>
<text text-anchor="middle" x="389.5" y="-26" font-family="Helvetica,sans-Serif" font-size="10.00">lcd</text>
</a>
</g>
</g>
<!-- Node2&#45;&gt;Node6 -->
<g id="edge5_Node000002_Node000006" class="edge">
<title>Node2&#45;&gt;Node6</title>
<g id="a_edge5_Node000002_Node000006"><a xlink:title=" ">
<path fill="none" stroke="#63b8ff" d="M139.2,-62.58C193.87,-55.1 312.08,-38.95 363.62,-31.9"/>
<polygon fill="#63b8ff" stroke="#63b8ff" points="364.41,-35.33 373.84,-30.5 363.46,-28.39 364.41,-35.33"/>
</a>
</g>
</g>
<!-- Node7 -->
<g id="Node000007" class="node">
<title>Node7</title>
<g id="a_Node000007"><a xlink:href="TransmitterNode_8ino.html#a28b75d7408d98c51c24e735af0e9552f" target="_top" xlink:title="Refresh the TX LCD with the current ARQ status and FSM state label.">
<polygon fill="white" stroke="#666666" points="284,-19 185,-19 185,0 284,0 284,-19"/>
<text text-anchor="middle" x="234.5" y="-7" font-family="Helvetica,sans-Serif" font-size="10.00">updateTxDisplay</text>
</a>
</g>
</g>
<!-- Node2&#45;&gt;Node7 -->
<g id="edge6_Node000002_Node000007" class="edge">
<title>Node2&#45;&gt;Node7</title>
<g id="a_edge6_Node000002_Node000007"><a xlink:title=" ">
<path fill="none" stroke="#63b8ff" d="M128.1,-56.99C140.96,-50.17 158.89,-40.91 175,-33.5 182.8,-29.91 191.29,-26.28 199.33,-22.96"/>
<polygon fill="#63b8ff" stroke="#63b8ff" points="200.88,-26.1 208.83,-19.09 198.24,-19.62 200.88,-26.1"/>
</a>
</g>
</g>
<!-- Node5 -->
<g id="Node000005" class="node">
<title>Node5</title>
<g id="a_Node000005"><a xlink:href="ReceiverNode_2csprng_8h.html#ade2c2e7611dd842d0956c92589d6cad8" target="_top" xlink:title="Produce the next 64&#45;byte ChaCha20 keystream block into s_keystreamBuf.">
<polygon fill="white" stroke="#666666" points="449,-95 330,-95 330,-76 449,-76 449,-95"/>
<text text-anchor="middle" x="389.5" y="-83" font-family="Helvetica,sans-Serif" font-size="10.00">s_fillKeystreamBlock</text>
</a>
</g>
</g>
<!-- Node4&#45;&gt;Node5 -->
<g id="edge4_Node000004_Node000005" class="edge">
<title>Node4&#45;&gt;Node5</title>
<g id="a_edge4_Node000004_Node000005"><a xlink:title=" ">
<path fill="none" stroke="#63b8ff" d="M271.37,-85.5C285.78,-85.5 302.9,-85.5 319.54,-85.5"/>
<polygon fill="#63b8ff" stroke="#63b8ff" points="319.81,-89 329.81,-85.5 319.81,-82 319.81,-89"/>
</a>
</g>
</g>
<!-- Node7&#45;&gt;Node6 -->
<g id="edge7_Node000007_Node000006" class="edge">
<title>Node7&#45;&gt;Node6</title>
<g id="a_edge7_Node000007_Node000006"><a xlink:title=" ">
<path fill="none" stroke="#63b8ff" d="M284.33,-15.56C310.69,-18.84 342.12,-22.74 363.52,-25.4"/>
<polygon fill="#63b8ff" stroke="#63b8ff" points="363.35,-28.9 373.71,-26.66 364.21,-21.96 363.35,-28.9"/>
</a>
</g>
</g>
</g>
</svg>
